<?xml version="1.0" encoding="UTF-8" standalone="no"?> <svg xmlns="http://www.w3.org/2000/svg" viewBox="0 0 64 64"><g id="Blackboard-chalkboard-class-classroom-education-school"><path d="M36,24.5A1.5,1.5,0,0,0,34.5,23H31v3h3.5A1.5,1.5,0,0,0,36,24.5Z"/><path d="M8,42H39V35a2.006,2.006,0,0,1,2-2H52a2.006,2.006,0,0,1,2,2v7h2V12H8ZM45,17a1,1,0,0,1,1-1h7a1,1,0,0,1,1,1v3H52V18H47v8h5V24h2v3a1,1,0,0,1-1,1H46a1,1,0,0,1-1-1Zm-5,2h3v2H40Zm0,4h3v2H40ZM29,17a1,1,0,0,1,1-1h4.5a3.493,3.493,0,0,1,2.44,6,3.493,3.493,0,0,1-2.44,6H30a1,1,0,0,1-1-1Zm-8,4h2V19h2v2h2v2H25v2H23V23H21ZM10,17a1,1,0,0,1,1-1h7a1,1,0,0,1,1,1V28H17V23H12v5H10Z"/><rect x="12" y="18" width="5" height="3"/><path d="M45.58,48H41.44L44.3,58.62a1.912,1.912,0,0,0,.92,1.21,1.969,1.969,0,0,0,1.52.2,1.99,1.99,0,0,0,1.41-2.44Z"/><path d="M36,19.5A1.5,1.5,0,0,0,34.5,18H31v3h3.5A1.5,1.5,0,0,0,36,19.5Z"/><polygon points="41 37 48 37 48 39 41 39 41 42 52 42 52 39 50 39 50 37 52 37 52 35 41 35 41 37"/><path d="M15.85,57.59a1.99,1.99,0,0,0,1.41,2.44,1.969,1.969,0,0,0,1.52-.2,1.919,1.919,0,0,0,.92-1.2L22.56,48H18.42Z"/><path d="M34,8a2,2,0,0,0-4,0H4V46H60V8ZM58,43a1,1,0,0,1-1,1H7a1,1,0,0,1-1-1V11a1,1,0,0,1,1-1H57a1,1,0,0,1,1,1Z"/><polygon points="23.55 52 23.02 54 40.98 54 40.45 52 23.55 52"/></g></svg>